<?xml version="1.0" encoding="UTF-8" standalone="no"?><!DOCTYPE svg PUBLIC "-//W3C//DTD SVG 1.1//EN" "http://www.w3.org/Graphics/SVG/1.1/DTD/svg11.dtd"><svg width="100%" height="100%" viewBox="0 0 300 300" version="1.1" xmlns="http://www.w3.org/2000/svg" xmlns:xlink="http://www.w3.org/1999/xlink" xml:space="preserve" xmlns:serif="http://www.serif.com/" style="fill-rule:evenodd;clip-rule:evenodd;stroke-linejoin:round;stroke-miterlimit:1.41421;"><g id="Logo"><path d="M278.679,237.999c-4.542,8.712 -12.942,16.872 -25.198,24.481c-12.256,7.609 -27.706,11.414 -46.35,11.414c-23.754,0 -43.203,-9.539 -58.345,-28.616c-15.143,-19.078 -22.714,-43.78 -22.714,-74.105l0,-44.165c0,-29.775 7.334,-54.035 22.004,-72.782c14.669,-18.747 33.644,-28.12 56.926,-28.12c22.43,0 40.246,6.892 53.448,20.677c13.202,13.784 19.614,31.318 19.236,52.601l-0.426,0.992l-15.616,0c0,-16.651 -4.921,-30.38 -14.764,-41.187c-9.842,-10.807 -23.802,-16.211 -41.878,-16.211c-18.55,0 -33.503,7.83 -44.86,23.489c-11.356,15.659 -17.035,35.729 -17.035,60.21l0,44.496c0,25.142 5.915,45.764 17.745,61.864c11.83,16.1 27.257,24.15 46.279,24.15c14.48,0 26.31,-2.536 35.49,-7.609c9.18,-5.072 15.569,-10.972 19.165,-17.699l0,-61.699l-55.648,0l0,-16.872l72.541,0l0,84.691Z" style="fill:#212121;fill-rule:nonzero;"/><path d="M181.736,169.684c0,31.098 -7.311,56.24 -21.933,75.428c-14.622,19.188 -34.236,28.782 -58.842,28.782c-24.228,0 -43.559,-9.594 -57.991,-28.782c-14.433,-19.188 -21.649,-44.33 -21.649,-75.428l0,-39.203c0,-30.987 7.192,-56.13 21.578,-75.428c14.385,-19.298 33.692,-28.947 57.92,-28.947c24.606,0 44.244,9.649 58.913,28.947c14.669,19.298 22.004,44.441 22.004,75.428l0,39.203Zm-16.893,-39.533c0,-26.025 -5.655,-46.978 -16.965,-62.857c-11.309,-15.88 -26.996,-23.82 -47.059,-23.82c-19.686,0 -35.017,7.94 -45.996,23.82c-10.978,15.879 -16.467,36.832 -16.467,62.857l0,39.533c0,26.246 5.513,47.308 16.538,63.188c11.026,15.879 26.381,23.819 46.067,23.819c20.158,0 35.844,-7.912 47.059,-23.737c11.215,-15.824 16.823,-36.914 16.823,-63.27l0,-39.533Z" style="fill:#212121;fill-rule:nonzero;"/></g></svg>